<mxfile>
    <diagram>
        <mxGraphModel dx="320" dy="200" pageWidth="320" pageHeight="200">
            <root>
                <mxCell id="0">
                </mxCell>
                <mxCell id="1" parent="0">
                </mxCell>
                <mxCell id="4" vertex="1" parent="0" edge="1" style = "endArrow=none;">
                    <mxGeometry width="50" height="50" relative="1" as="geometry">
                        <mxPoint x="20" y="20" as="sourcePoint">
                        </mxPoint>
                        <mxPoint x="40" y="40" as="targetPoint">
                        </mxPoint>
                    </mxGeometry>
                </mxCell>
            </root>
        </mxGraphModel>
    </diagram>
</mxfile>
